PathFileType	4	(X/Y/Z)	/home/abdul/Desktop/myosuite/custom_workspace/IK/output/S19_12_2.trc
DataRate	CameraRate	NumFrames	NumMarkers	Units	OrigDataRate	OrigDataStartFrame	OrigNumFrames
200.0	200.0	56	3	mm	200.0	185	1474
Frame#	Time	V_Shoulder			V_Elbow			V_Wrist		
		X1	Y1	Z1	X2	Y2	Z2	X3	Y3	Z3

185	0.92	-103.44779694649742	662.6829415798289	315.59729747437194				-84.83324871314535	236.24781963564183	48.49311869744766
186	0.925	-103.29256705948416	662.2800507168137	315.5760232490501				-84.21241080228792	235.45868067811466	48.16362241533099
187	0.93	-103.13673616327974	661.8781228637898	315.5555889996049				-83.61145250622602	234.68843713273924	47.82727422546038
188	0.935	-102.98037648045205	661.4772749181076	315.53600626169543				-83.03032911588143	233.9370614610893	47.48471306149851
189	0.94	-102.8235608676777	661.0776220172842	315.51728585972				-82.46897804406449	233.20449527860706	47.13658392879886
190	0.945	-102.66636274601103	660.6792774055449	315.4994378757579				-81.9273189421251	232.4906499655154	46.78353618325662
191	0.95	-102.50885603084322	660.2823523040904	315.48247161878186				-81.405253827244	231.7954073541163	46.42622180690071
192	0.955	-102.35111506163939	659.8869557853275	315.46639559422636				-80.9026672211846	231.11862048951585	46.0652936860766
193	0.96	-102.1932145315415	659.4931946512924	315.451217474				-80.41942630136676	230.4601144605747	45.70140389806843
194	0.965	-102.03522941692252	659.1011733164858	315.4369440670305				-79.95538106515403	229.81968729765762	45.33520201198293
195	0.97	-101.87723490697583	658.7109936953256	315.4235812904319				-79.51036450826754	229.19711093354374	44.967333409667944
196	0.975	-101.71930633342238	658.3227550944176	315.41113414138357				-79.08419281825141	228.59213222366503	44.598437632363414
197	0.98	-101.56151910041575	657.9365541098313	315.39960666981193				-78.67666558391589	228.0044740216623	44.229146758683555
198	0.985	-101.40394861472356	657.5524845295505	315.3890019519656				-78.28756602167729	227.43383630608926	43.86008381940488
199	0.99	-101.24667021626207	657.1706372412715	315.3793220649728				-77.91666121969547	226.87989735395067	43.49186125438653
200	0.995	-101.08975910905777	656.7911001456896	315.37056806247233				-77.56370240068343	226.34231495663818	43.12507941677691
201	1.0	-100.93329029270883	656.4139580754199	315.36273995140544				-77.2284252042269	225.82072767372063	42.76032512946489
202	1.005	-100.77733849441604	656.0392927196755	315.3558366700564				-76.91054998940658	225.31475611995884	42.39817029851504
203	1.01	-100.6219781016514	655.6671825548154	315.34985606742794				-76.60978215846168	224.82400428084674	42.03917058808612
204	1.015	-100.4672830955303	655.2977027808624	315.34479488403434				-76.32581250217144	224.34806085193162	41.683864161069565
205	1.02	-100.31332698495032	654.9309252640785	315.3406487341969				-76.05831756756027	223.88650059713598	41.332770489403984
206	1.025	-100.16018274155836	654.5669184856677	315.3374120899184				-75.80696004845518	223.43888572129237	40.98638923772072
207	1.03	-100.00792273560467	654.2057474966686	315.3350782664167				-75.57138919933922	223.0047672521107	40.64519922365858
208	1.035	-99.85661867274086	653.8474738790811	315.3336394093887				-75.35124127285334	222.5836864268228	40.30965745785212
209	1.04	-99.70634153181628	653.4921557132576	315.33308648407825				-75.14613998120245	222.17517607879563	39.98019826625116
210	1.045	-99.5571615037245	653.1398475515795	315.33340926621446				-74.95569698161879	221.77876201946663	39.657232497069316
211	1.05	-99.40914793135069	652.790600398423	315.3345963348843				-74.77951238592954	221.3939644110347	39.341146814289594
212	1.055	-99.26236925066696	652.4444616964032	315.33663506739896				-74.6171752941639	221.02029912544089	39.03230307927697
213	1.06	-99.11689293302199	652.1014753188788	315.3395116362109				-74.46826435202152	220.65727908528595	38.73103782166315
214	1.065	-98.97278542866808	651.7616815686764	315.3432110079311				-74.33234833190683	220.304415582464	38.43766180027977
215	1.07	-98.83011211156747	651.4251171829906	315.3477169444947				-74.20898673711514	219.96121957043954	38.15245965452565
216	1.075	-98.68893722551739	651.0918153443955	315.3530120065161				-74.09773042863658	219.6272029262563	37.8756896461627
217	1.08	-98.54932383163138	650.7618056978948	315.3590775588697				-73.99812227392276	219.30187967854334	37.607583491146855
218	1.085	-98.41133375721272	650.4351143739244	315.36589377852874				-73.90969781684132	218.98476719797327	37.34834628071644
219	1.09	-98.27502754605376	650.1117640172077	315.3734396646882				-73.83198596792342	218.67538734683072	37.09815649058319
220	1.095	-98.14046441019309	649.7917738213561	315.38169305119214				-73.76450971389127	218.3732675845625	36.85716607670329
221	1.1	-98.00770218316136	649.4751595690898	315.3906306212804				-73.7067868453374	218.07794202640576	36.625500655748084
222	1.105	-97.87679727474399	649.1619336779501	315.4002279246647				-73.65833070131389	217.78895245242506	36.40325976805045
223	1.11	-97.74780462728882	648.8521052513584	315.41045939693635				-73.61865092948122	217.5058492645318	36.19051722047332
224	1.115	-97.6207776735835	648.5456801348677	315.42129838130523				-73.58725426036122	217.2281923893089	35.98732150633463
225	1.12	-97.49576829632751	648.2426609774478	315.43271715266064				-73.5636452941383	216.9555521247211	35.79369629922918
226	1.125	-97.37282678922156	647.9430472976295	315.4446869439393				-73.54732729835885	216.6875099290518	35.60964101731414
227	1.13	-97.25200181969579	647.6468355543287	315.4571779747825				-73.53780301479034	216.42365915067123	35.435131454372936
228	1.135	-97.13334039329702	647.3540192221619	315.47015948245394				-73.53457547361937	216.16360569751012	35.27012047374303
229	1.14	-97.01688781975423	647.0645888710583	315.4835997549884				-73.53714881309392	215.90696864537932	35.114538760987905
230	1.145	-96.90268768073982	646.7785322499634	315.49746616653164				-73.54502910264752	215.6533807845451	34.96829563101321
231	1.15	-96.79078179934334	646.4958343744293	315.5117252148291				-73.55772516748443	215.40248910423605	34.83127988517278
232	1.155	-96.68121021127358	646.2164776178698	315.52634256081296				-73.5747494125547	215.1539552150224	34.7033607137817
233	1.16	-96.57401113780331	645.9404418062676	315.5412830702333				-73.59561864380609	214.9074557092677	34.58438863935219
234	1.165	-96.46922096047003	645.667704316102	315.55651085727186				-73.61985488456804	214.66268246010887	34.47419649579357
235	1.17	-96.36687419754587	645.3982401752733	315.57198933007226				-73.64698618489962	214.4193428596679	34.37260043876962
236	1.175	-96.26700348228745	645.132022166787	315.58768123811626				-73.67654742172046	214.17715999744016	34.27940098238592
237	1.18	-96.16963954297701	644.8690209349656	315.60354872136844				-73.70808108754079	213.935872780037	34.194384057385115
238	1.185	-96.07481118476419	644.6092050939473	315.6195533611082				-73.74113806561232	213.6952359936823	34.11732208605903
239	1.19	-95.9825452733171	644.352541338234	315.63565623236343				-73.7752783893392	213.45502031107497	34.04797506914352
240	1.195	-95.89286672029125	644.0989945550492	315.6518179578542				-73.81007198381525	213.21501224442892	33.98609168004181
